<svg width="154" height="150" viewBox="0 0 154 150" fill="none" xmlns="http://www.w3.org/2000/svg">
<path d="M106.463 50.0597C105.658 47.0767 104.474 44.4489 102.912 42.1761C101.349 39.8561 99.4318 37.8911 97.1591 36.2812C94.8864 34.6714 92.2822 33.464 89.3466 32.6591C86.411 31.8068 83.1913 31.3807 79.6875 31.3807C72.6326 31.3807 66.5246 33.0852 61.3636 36.4943C56.25 39.9034 52.2964 44.875 49.5028 51.4091C46.7093 57.8958 45.3125 65.7794 45.3125 75.0597C45.3125 84.3873 46.6619 92.3419 49.3608 98.9233C52.0597 105.505 55.9659 110.524 61.0795 113.98C66.1932 117.437 72.3958 119.165 79.6875 119.165C86.1269 119.165 91.572 118.123 96.0227 116.04C100.521 113.909 103.93 110.902 106.25 107.02C108.57 103.137 109.73 98.5682 109.73 93.3125L116.264 94.0938H80.8949V68.4545H143.608V87.7017C143.608 100.723 140.838 111.873 135.298 121.153C129.806 130.434 122.23 137.56 112.571 142.531C102.959 147.503 91.9034 149.989 79.4034 149.989C65.5303 149.989 53.3381 146.982 42.8267 140.969C32.3153 134.955 24.1241 126.385 18.2528 115.259C12.3816 104.084 9.44602 90.8267 9.44602 75.4858C9.44602 63.554 11.2216 52.9716 14.7727 43.7386C18.3239 34.4583 23.2718 26.5985 29.6165 20.1591C36.0085 13.7197 43.3949 8.8428 51.7756 5.5284C60.2036 2.21401 69.2708 0.556813 78.9773 0.556813C87.4053 0.556813 95.2415 1.7642 102.486 4.17898C109.777 6.59375 116.217 10.0028 121.804 14.4062C127.438 18.8097 132.008 24.0417 135.511 30.1023C139.015 36.1629 141.193 42.8153 142.045 50.0597H106.463Z" fill="url(#paint0_linear_221_17)"/>
<defs>
<linearGradient id="paint0_linear_221_17" x1="20" y1="39.5496" x2="86.0266" y2="144.326" gradientUnits="userSpaceOnUse">
<stop stop-color="#0F40ED"/>
<stop offset="1" stop-color="#E92C92"/>
</linearGradient>
</defs>
</svg>
